<svg width="512" height="512" viewBox="0 0 24 24" xmlns="http://www.w3.org/2000/svg">
  <rect width="24" height="24" fill="#1A2035"/>
  <g fill="none" stroke="#E5E7EB" stroke-width="1.5" stroke-linecap="round" stroke-linejoin="round">
    <path d="M12 10v10"/>
    <path d="M12 5a2 2 0 1 0 0-4 2 2 0 0 0 0 4Z"/>
    <path d="M12 10h4V7a2 2 0 0 0-2-2h-4a2 2 0 0 0-2 2v3h4Z"/>
    <path d="M18 10h1a2 2 0 0 1 2 2v2a2 2 0 0 1-2 2h-1"/>
    <path d="M5 10H4a2 2 0 0 0-2 2v2a2 2 0 0 0 2 2h1"/>
  </g>
</svg>